<svg xmlns="http://www.w3.org/2000/svg" enable-background="new 0 0 2793 2793" viewBox="0 0 2793 2793" id="thinking-woman"><path fill="#020101" d="M2283.724 2495.958c-1.539-5.592-4.224-10.997-4.898-16.665-.804-6.76-3.504-12.555-6.557-18.291-3.237-6.082-6.75-12.036-10.462-17.842-8.856-13.855-19.772-26.024-31.442-37.537-10.882-10.735-21.045-22.123-30.697-33.96-7.175-8.799-12.75-18.464-15.893-29.516-3.653-12.844-2.632-25.131 3.373-37.019 2.454-4.859 5.059-9.643 7.458-14.529 5.717-11.639 7.99-24.002 7.983-36.928-.008-14.379-3.19-28.116-7.923-41.538-9.34-26.486-22.514-51.136-36.729-75.239-25.115-42.584-52.099-83.958-81.357-123.82-16.529-22.52-31.393-46.291-50.288-67.045-2.189-2.404-3.879-5.259-5.828-7.885-5.413-7.295-10.784-14.621-16.272-21.859-13.878-18.305-25.575-37.923-35.414-58.659-1.076-2.268-1.755-4.725-2.618-7.094.875-1.714 2.046-.331 3.088-.295 3.099.994 6.134 2.354 9.309 2.913 9.386 1.653 14.993-4.258 12.394-13.317-1.593-5.55-4.021-10.874-6.272-16.217-5.776-13.709-11.93-27.266-17.442-41.079-8.117-20.342-13.087-41.526-15.552-63.281-.514-4.536-1.087-9.125-.355-14.474 4.003 1.776 6.599 4.265 9.433 6.347 8.781 6.451 17.379 13.197 27.178 18.086 3.878 1.936 7.896 3.822 12.065 4.898 8.344 2.153 14.422-3.993 12.457-12.451-.729-3.138-2.178-6.142-3.549-9.09-5.968-12.837-11.953-25.658-16.596-39.06-15.19-43.844-23.258-89.185-27.876-135.176-3.785-37.697-2.963-75.549-1.626-113.327 1.092-30.865 3.628-61.676 5.214-92.527 2.446-47.586 2.797-95.192.583-142.804-.44-9.464-1.975-18.774-3.562-28.085-3.066-17.991-9.774-34.938-15.714-52.018-12.595-36.222-34.412-67.033-59.206-95.823-17.68-20.529-38.845-37.189-60.938-52.592-24.516-17.094-50.856-30.905-79.149-40.732-7.524-2.613-15.39-4.226-22.982-6.663-47.047-15.102-94.212-15.253-141.637-1.749-47.02 13.389-89.245 36.365-129.012 64.213-14.876 10.417-29.267 21.529-43.844 32.371-22.739 16.914-45.528 33.763-68.148 50.835-25.876 19.53-53.107 36.747-82.614 50.334-26.035 11.988-52.076 23.969-76.953 38.323-27.285 15.744-51.489 35.31-73.319 57.914-1.503 1.557-3.091 3.193-4.034 5.093-1.701 3.43-1.875 7.104.706 10.254 2.282 2.786 5.389 3.466 8.881 2.57 2.795-.717 5.617-1.326 8.427-1.983 2.2-1.065 4.518-.62 6.847-.544.338.167.817-.708 1.018.143-1.008.485-1.8 1.236-2.392 2.205-29.12 15.923-55.718 35.319-80.061 57.866-21.43 19.85-40.156 41.889-55.053 67.087-10.398 17.588-18.125 36.304-23.399 56.017-1.021 3.814-1.857 7.862-1.713 11.762.289 7.839 7.509 11.32 13.944 6.943 2.373-1.614 4.395-3.764 6.492-5.76 3.935-3.743 7.816-7.541 12.862-9.825.611 0 1.011.047 1.025.162.093.778-.207 1.382-.867 1.807-16.927 19.052-30.734 40.173-42.292 62.867-20.397 40.052-32.996 82.494-39.53 126.843-.261 1.773-.562 3.624-.328 5.369.45 3.349 1.844 6.3 5.247 7.673 3.199 1.292 6.817.15 9.623-3.074 2.131-2.448 4.084-5.051 6.116-7.586 5.177-.976 3.175 2.038 2.423 4.358-.303 1.787-.455 3.616-.933 5.355-8.554 31.136-16.53 62.448-25.876 93.345-14.825 49.01-31.125 97.507-57.395 141.946-4.808 8.135-8.353 16.917-11.153 25.956-.962 3.107-2.539 6.435-2.159 9.451.582 4.62-1.443 7.376-4.137 10.487-20.453 23.623-40.979 47.187-61.109 71.084-24.11 28.621-47.792 57.601-71.777 86.328-10.246 12.271-20.863 24.231-31.177 36.446-12.25 14.508-22.574 30.239-29.826 47.883-8.167 19.87-11.711 40.362-8.653 61.803 1.23 8.624 2.478 17.249 3.459 25.903 1.582 13.95-1.888 26.628-10.033 38.07-4.226 5.936-8.91 11.464-13.986 16.688-12.191 12.546-25.549 23.696-39.694 33.976-11.161 8.111-22.204 16.403-33.004 24.987-17.952 14.269-29.226 32.837-35.229 54.953-6.33 23.32-9.037 47.053-9.173 71.1-.099 17.446 1.071 34.804 4.443 52.023 5.607 28.638 15.25 56.009 25.903 83.005 14.391 36.469 31.112 71.923 48.829 106.893 3.769 7.44 7.855 14.737 12.146 21.89 9.477 15.798 21.374 29.319 37.52 38.7 2.505 1.455 4.862 3.162 7.287 4.753 2.711 3.627 6.648 2.183 10.064 2.191 38.05.088 76.1.055 114.149.01 4.344-.005 8.689-.28 13.033-.43.69.021 1.385.097 2.067.034.291-.026.555-.343.831-.527-.295-.42-.517-1.092-.901-1.202-.63-.181-1.364.003-2.054.033v.001h-.001l-6.07-.521c-4.204-2.499-8.772-2.023-13.33-1.633l-4.371.089-6.506-.052h-.001c-7.305-.741-14.616-.728-21.931-.205v.001l-.002-.001c-15.854-1.669-31.728-.692-47.597-.363l-.116.083-.001-.001a5.319 5.319 0 0 0-.992-.508c-3.755-1.733-7.932-1.394-11.895-2.115-9.568-4.408-18.321-10.171-27.119-15.915-8.354-5.455-15.397-12.167-21.122-20.231-3.989-5.618-7.94-11.335-11.185-17.396-7.022-13.118-13.861-26.349-20.274-39.773-18.935-39.636-36.759-79.698-50.581-121.524-16.042-48.546-18.281-97.456-7.396-147.214 4.996-22.838 15.803-41.995 34.665-56.246 3.479-2.628 6.834-5.421 10.34-8.011 7.598-5.613 15.256-11.144 22.89-16.708 13.84-10.087 26.677-21.325 38.596-33.617 7.108-7.33 13.553-15.181 18.733-24.007 8.403-14.317 11.315-29.73 8.956-46.131-.724-5.032-1.803-10.013-2.525-15.046-3.378-23.553-1.231-46.249 9.442-67.969 7.77-15.814 17.964-29.813 29.329-43.112 16.529-19.341 33.194-38.571 49.407-58.174 31.502-38.091 62.747-76.395 95.335-113.572 34.527-39.389 70.31-77.524 109.802-112.084 20.123-17.609 42.135-32.092 66.157-43.661 9.508-4.579 19.336-8.342 29.567-10.902 22.36-5.595 45.168-7.066 68.122-6.946.917.005 1.83.652 2.991 1.094-.415 2.346-.677 4.501-1.185 6.597-4.809 19.804-1.566 38.258 9.636 55.188 4.201 6.349 9.048 12.278 13.731 18.296 5.802 7.456 11.839 14.729 17.593 22.22 6.658 8.668 12.26 18.018 16.807 27.955 4.761 10.405 7.826 21.314 5.58 32.777-2.52 12.86-7.169 25.101-12.735 36.977-1.22 2.604-2.913 3.737-5.938 3.424-11.509-1.19-20.344 3.816-27.672 12.254a126.851 126.851 0 0 0-14.468 20.423c-4.313 7.57-8.435 15.248-12.664 22.866-6.342 11.426-12.252 23.122-19.155 34.199-12.869 20.651-25.964 41.179-39.606 61.324-24.683 36.449-51.443 71.304-81.491 103.566-8.667 9.306-17.048 18.891-25.285 28.581-3.747 4.407-6.988 9.277-10.147 14.139-1.97 3.031-3.322 6.433-3.783 10.129-.945 7.579 1.865 12.748 8.957 15.515 3.024 1.179 6.284 1.761 9.445 2.584 4.912 1.279 9.844 2.483 14.745 3.805 26.725 7.21 50.3 20.774 72.087 37.298 15.922 12.076 31.435 24.542 50.065 31.422.109 1.49.36 2.245.184 2.882-9.644 34.9-24.242 67.577-43.972 97.957-5.538 8.528-11.016 17.098-16.36 25.748-3.439 5.566-6.251 11.461-8.355 17.686-2.851 8.435-3.928 16.902-1.536 25.689 1.253 4.602 2.99 8.992 5.295 13.083 3.838 6.812 4.351 13.721 1.747 20.979-1.714 4.779-3.152 9.681-5.209 14.307-6.12 13.766-9.435 28.154-10.686 43.131-1.465 17.547-6.289 34.232-13.742 50.164-5.075 10.848-10.12 21.712-15.303 32.508-9.268 19.303-22.263 35.714-39.016 49.026-4.518 3.59-9.453 6.857-14.634 9.373-16.408 7.968-33.721 13.273-51.727 16.274-2.829-.867-5.636-.173-8.437.162-5.279.631-10.549 1.332-15.823 2.003-1.729-.347-3.457-.685-4.979.664 1.49 1.416 3.218 1.057 4.943.715-.028-.46-.016-.92.036-1.379l-.036 1.378c23.071 1.238 46.161.406 69.241.608 1.808.016 3.614-.106 4.735-1.886 14.18-5.319 26.27-13.867 37.174-24.203 8.217-7.788 14.855-16.913 21.675-25.882.982-1.291 1.632-3.336 4.212-2.336.365 13.781 2.624 27.405 4.906 41.016 2.169 12.938 2.766 13.299 16.041 12.169.65-.055 1.254-.643 2.295-1.209-.593-3.708-1.126-7.614-1.852-11.483-3.555-18.94-6.908-37.896-6.231-57.298.101-2.883.459-5.908-1.607-8.356-1.721-2.038-1.052-4.042-.119-6.038 3.074-6.576 6.241-13.108 9.298-19.692 8.018-17.269 13.267-35.265 14.841-54.334 1.08-13.083 3.772-25.863 9.191-37.942 1.039-2.317 1.934-4.698 2.919-7.041 6.505-15.463 8.125-30.625-1.015-45.948-4.495-7.535-4.291-16.056-.867-24.201 1.963-4.671 4.094-9.318 6.64-13.688 4.02-6.899 8.31-13.653 12.738-20.301 19.443-29.193 34.78-60.339 45.074-93.919.848-2.767 1.779-5.557 3.085-8.126 7.061-13.886 13.842-27.938 21.499-41.492 9.997-17.698 20.623-35.044 31.162-52.43 8.472-13.976 17.259-27.76 25.831-41.675 22.296-36.192 42.546-73.553 62.802-110.895 13.329-24.573 25.064-49.952 34.527-76.317 1.967-5.479 4.131-10.939 3.556-16.906-.337-3.496.95-6.336 2.632-9.206 7.712-13.157 15.347-26.36 23.052-39.521 1.002-1.712 1.481-4.074 4.703-4.129 2.587 4.954 5.546 9.966 7.9 15.247 8.326 18.681 19.253 35.81 31.082 52.381 6.763 9.474 14.121 18.464 23.659 25.443 15.27 11.172 31.724 13.888 49.375 6.855 16.614-6.621 32.136-15.249 45.89-26.817 18.396-15.474 35.485-32.283 51.204-50.473 9.269-10.725 18.462-21.516 27.753-32.222 1.318-1.519 2.233-3.789 5.268-3.545 1.473 2.683 3.097 5.501 4.593 8.386 20.386 39.321 40.705 78.678 61.138 117.975 45.093 86.719 92.204 172.265 147.635 252.947 4.368 6.358 7.998 12.838 9.063 20.657.432 3.173 1.946 6.21 3.054 9.277 4.446 12.299 9.732 24.244 15.413 36.011 2.238 4.635 3.913 9.231 3.509 14.551-.36 4.741.887 9.251 2.701 13.739 3.124 7.726 5.957 15.597 8.409 23.562 3.319 10.779 7.361 21.233 11.979 31.52 4.452 9.917 9.167 19.723 12.281 30.23 3.454 11.655 3.06 22.827-1.833 33.994-3.056 6.973-5.718 14.132-8.296 21.301-7.511 20.888-8.406 41.873-.558 62.924 2.155 5.78 3.974 11.697 6.356 17.379 3.946 9.411 8.933 18.215 15.567 26.096 4.166 4.948 10.684 8.342 12.267 14.935 1.511 6.294 1.484 12.963 2.059 19.474.256 2.895.352 5.805.482 8.71.931 20.817-.699 41.356-6.601 61.446a19.48 19.48 0 0 0-.789 5.351c-.012 3.326 2.467 6.348 5.656 7.151 3.133.789 5.888-.164 7.777-2.638 1.283-1.68 2.134-3.775 2.829-5.805 8.117-23.718 12.204-47.828 6.866-72.823-.227-1.063-.496-2.176-.399-3.234.108-1.18-.939-2.86.986-3.441.493.077.902.035 1.186.203 1.561.926 3.105 1.88 4.629 2.865 40.621 26.266 84.613 44.648 131.549 56.065 26.403 6.422 52.981 8.697 79.906 3.089 18.158-3.782 36.159-8.009 52.96-16.127 27.621-13.345 53.129-29.758 75.215-51.305 39.559-38.595 64.597-84.564 71.104-139.832 2.523-21.439 1.366-42.832-4.401-63.789zM1905.639 1464.43l.813-1.596 1.24 1.27.008.05.001.002c2.432.875 1.921 2.793 1.641 4.629l.639 7.858.002.005c1.437 3.039 1.868 6.236 1.496 9.56l.111 2.179.609 7.465.003.009c1.767 3.122 1.972 6.5 1.609 9.969 1.159 6.796 3.098 13.491 2.652 20.494v.004c1.707 2.387 1.989 5.078 1.676 7.896 1.172 4.871 2.765 9.666 2.647 14.767l.001.003c1.343 2.172 2.137 4.473 1.648 7.073l.487 3.918c2.286 8.667 4.503 17.352 6.873 25.995 4.468 16.303 9.544 32.416 15.391 48.283.738 2.002 1.242 4.091 1.854 6.14.99.682 1.537 1.576 1.352 2.82l.667 2.012c2.8 4.895 5.101 9.996 6.388 15.514 2.086 3.331 3.643 6.883 4.484 10.734 3.223 6.472 6.458 12.938 9.656 19.422.55 1.115.16 2.089-1.007 2.454-.593.186-1.565.14-1.964-.232-1.042-.971-2.048-2.076-2.74-3.311-2.471-4.413-4.932-8.846-6.138-13.827-2.234-3.26-3.745-6.831-4.603-10.684-2.891-4.84-5.234-9.906-6.369-15.469-.494-.36-.61-.817-.35-1.369v-.001.001c-1.038-.717-1.583-1.671-1.418-2.964-.598-.536-.789-1.19-.574-1.964-1.241-1.285-2.105-2.723-1.886-4.605-7.688-17.121-12.543-35.185-17.526-53.192-1.717-6.206-2.81-12.583-4.188-18.883l-.702-3.51-.001-.003c-1.479-1.451-1.813-3.222-1.44-5.189l-.582-3.809c-1.363-2.161-2.094-4.468-1.626-7.051l-.609-5.305-.001-.004c-1.706-2.349-2.001-5.007-1.686-7.796l-.426-3.61a5.196 5.196 0 0 1-.272-.577c-1.322-2.805-1.807-5.762-1.445-8.874-1.512-6.897-3.033-13.793-2.728-20.927l-.005-.013c-1.458-3.054-1.926-6.26-1.438-9.608l-.769-9.957-.002-.006c-1.433-3.091-1.86-6.332-1.435-9.7-.626-2.159-1.066-4.322-.018-6.49 0 0 .001 0 0 0 .001 0 0 0 0 0zm17.044 381.929-.098-.116c-1.025-.385-1.669-1.057-1.668-2.214l-2.818-3.956c-1.136-.408-1.828-1.177-1.96-2.401-10.209-10.116-20.469-20.181-30.604-30.372-4.023-4.046-8.71-7.56-11.181-12.961-1.687-1.019-2.146-2.706-2.306-4.479-.154-1.709-.499-4.182 1.354-4.556 2.901-.585 2.914 2.263 3.339 4.25.146.681.125 1.398.181 2.099 6.333 7.853 14 14.372 21.242 21.32 8 7.675 16.425 14.969 22.575 24.363 1.092.35 1.762 1.032 1.775 2.236l.232.352a3.12 3.12 0 0 1 1.398 1.806l1.062 1.834c8.532 10.863 13.962 23.35 18.84 36.115.364.953.353 2.12.24 3.158-.065.6-.58 1.46-1.08 1.621-.543.175-1.407-.184-1.94-.573-.54-.393-1.01-1.051-1.23-1.689-4.357-12.638-11.151-24.093-17.353-35.837zm-12.722-132.38c1.536 3.187 1.791 6.574 1.54 10.038.57 4.412 2.906 8.491 2.468 13.093 1.299 2.667 2.452 5.376 2.383 8.43l17.752 42.883c2.24 4.026 4.529 8.026 6.688 12.094.615 1.16 1.623 2.706-.111 3.708-2.156 1.245-3.266-.58-4.156-2.024-2.047-3.323-4.21-6.619-4.989-10.553-7.03-13.312-13.172-26.992-17.255-41.528-1.349-2.665-2.706-5.328-2.567-8.445-2.115-2.391-2.345-5.319-2.364-8.307-1.333-2.199-2.089-4.531-1.641-7.139-.724-2.455-1.128-4.934-.551-7.486l-.001-.008v.004c-1.602-5.492-2.056-10.97.263-16.403l.145-.184c.674-.551 1.318-.518 1.932.1 1.646 3.848 1.078 7.783.462 11.721l.002.006zm-126.566-729.426c.001 0 0 0 0 0 .525-2.67 1.973-2.406 3.349-.824.546.628.347 1.904.488 2.885l4.33 13.125c1.274 1.828 2.611 3.626 2.797 5.964v.001c3.513 4.115 6.016 8.857 8.467 13.632a7.31 7.31 0 0 1 1.503 2.042c.701.292 1.005.815.912 1.569 4.116 4.102 7.602 8.705 10.782 13.551 7.086 6.804 13.861 13.89 19.747 21.781 4.445 3.724 7.982 8.172 10.643 13.322 7.624 8.77 13.054 18.963 18.667 29.017 10.776 19.302 18.699 39.772 24.495 61.078.468 1.722.529 3.554.779 5.335 1.344 1.417 1.867 3.072 1.446 5l.622 3.926c1.428 2.12 2.147 4.407 1.647 6.982l.581 5.341v.006-.003c2.984 9.985 4.367 20.205 4.432 30.616a.074.074 0 0 1 .004.014c1.655 3.857 1.939 7.885 1.457 12.005.75 4.754 1.089 9.527.663 14.336l.008.038c1.755 6.763 1.915 13.648 1.531 20.574.612 8.297 1.428 16.591.485 24.918l.001.013v-.014c2.085 12.206 2.188 24.483 1.252 36.788-.048.63-.7 1.213-1.079 1.818l.014.002-.001.003.003-.001-.003.001c-.336.544-.605 1.474-1.027 1.55-1.297.232-1.616-.714-1.548-1.831-.93-6.859-1.01-13.722-.08-20.588l-.003-.014v.012l-.008-.052c-.5-2.248-.767-4.509-.901-6.776-.965-9.001-1.006-18.051-.84-27.112l-.026-4.413c-.893-4.658-1.01-9.344-.52-14.053l-.002-.007v.003a15.07 15.07 0 0 1-.467-1.875c-1.272-5.504-1.49-11.102-1.138-16.75l-.662-12.073-.014-.041c-1.527-3.83-1.942-7.808-1.539-11.892-.609-5.853-2.539-11.537-2.237-17.506-1.181-4.882-2.693-9.706-2.634-14.809-1.407-2.123-2.131-4.41-1.683-6.98-3.92-14.344-7.716-28.716-13.37-42.528-7.036-17.186-15.609-33.538-25.772-49.072-1.776-2.715-3.395-5.534-5.086-8.304-4.166-3.984-7.49-8.644-10.756-13.351-7.112-6.765-13.837-13.881-19.759-21.728-4.45-3.668-7.842-8.187-10.617-13.202l-.137-.198a17.279 17.279 0 0 1-1.576-2.068c-3.818-4.666-7.237-9.565-9.024-15.419-1.453-1.71-2.643-3.544-2.772-5.877-2.579-2.49-3.565-5.714-4.189-9.104-1.133-1.317-2.027-2.715-1.573-4.576-.018-1.401-.04-2.804-.062-4.207zm-57.218 844.256c.225 1.244.846 2.587.567 3.705-.301 1.206-1.449 2.147-2.484.252-2.323-1.561-2.449-3.824-2-6.27-.877-2.868-.767-5.733.022-8.596-.975-4.814.908-9.299 2.084-13.712 3.416-12.817 7.484-25.447 15.042-36.596 1.234-3.644 3.204-6.783 6.275-9.169 7.575-11.242 17.414-20.204 28.313-28.097.393-1.162 1.165-1.861 2.412-1.98l.13-.1c.29-1.077.928-1.747 2.098-1.796l.411-.3a3.685 3.685 0 0 1 1.816-1.506c.224-.713.709-1.04 1.454-.979 1.123-2.042 2.871-3.333 5.007-4.156 3.205-3.465 6.668-6.612 10.877-8.842.327-1.102 1.017-1.821 2.165-2.057 6.454-9.132 11.84-18.673 13.869-29.948 1.487-8.261 1.506-16.417.542-24.667-.332-2.838-.55-5.689-.821-8.534l-5.004-23.456c-3.809-9.052-4.54-18.595-4.388-28.253.013-.833.799-2.237 1.43-2.365 1.619-.327 2.473.885 2.771 2.427.068.35.145.701.183 1.056.804 7.426 1.604 14.852 2.404 22.279 2.156 6.778 4.631 13.483 4.78 20.724l.001.003c1.71 2.283 1.97 4.881 1.645 7.607 3.75 15.155 3.396 30.184-1.986 44.877-2.848 7.777-6.156 15.436-13.134 20.669-.205 1.217-1.008 1.852-2.121 2.185-2.555 3.991-6.284 6.618-10.323 8.884h-.002l.001.001-.272.078v.001c-.197 1.242-.969 1.851-2.179 1.978-.472 1.029-1.13 1.82-2.374 1.864l-.537.402a2.636 2.636 0 0 1-1.555 1.304c-4.354 3.757-8.664 7.566-13.071 11.259-8.02 6.72-14.961 14.492-21.922 22.249-1.663 3.403-3.482 6.699-6.274 9.342-2.737 6.311-5.746 12.52-8.152 18.954-4.727 12.641-8.243 25.578-7.7 39.279zm36.072-4.435c1.563-1.465 3.115-3.191 5.016-4.009 13.545-5.83 27.511-8.682 42.224-5.159 4.825.114 9.689.005 14.083 2.518 3.503-.255 6.977-.338 10.092 1.704l-.001.005.007-.003c4.616.682 9.586-.389 13.729 2.717l-.003.002c1.509 1.187 1.262 2.427-.48 2.583-3.782.339-7.565-.038-11.193-1.343l-6.109-1.2c-6.272.708-12.156-1.643-18.198-2.549-16.602-2.49-32.44-1.743-46.949 7.824-.414.273-1.461.018-1.95-.345-.973-.723-1.164-1.906-.268-2.745zm84.474-357.967c0-.001 0-.001 0 0a4355.62 4355.62 0 0 0-.595-3.817c-1.769-2.028-2.075-4.413-1.698-6.965l-.639-5.398-.002-.006c-1.846-3.07-1.981-6.406-1.517-9.834-.152-2.826-.385-5.652-.419-8.479-.016-1.363.268-2.745 1.687-3.538 1.068-.597 2.422 1.378 2.532 3.784.244 5.319.461 10.64.689 15.959l.001.004c1.528 2.337 2.023 4.876 1.465 7.617l.568 3.918c1.984 6.496 4.014 12.978 5.908 19.5.321 1.105-.454 2.092-1.696 2.156-.607.032-1.511-.271-1.82-.732-2.868-4.274-4.399-8.998-4.464-14.169zm-86.68-366.113c.53-.195 1.515.119 1.951.56.732.74 1.258 1.717 1.746 2.66 5.156 9.961 10.166 20 15.45 29.892 14.585 27.304 24.757 56.234 32.064 86.234.338 1.39.306 2.87.447 4.308v.001c1.455 2.112 2.183 4.401 1.706 6.984l.543 3.782c1.474 2.166 2.077 4.525 1.593 7.129l.604 5.404v.004-.001c2.303 4.031 2.262 8.456 2.152 12.893l.001.005c1.661 2.382 1.973 5.044 1.614 7.845l.579 5.649.008.02c1.489 3.045 2.028 6.247 1.571 9.613.714 2.481 1.053 4.991.57 7.562l.002.005c1.745 3.858 2.073 7.914 1.646 12.073l.062 4.452c.966 7.225 1.214 14.449-.061 21.668.764 3.259-.67 5.952-2.217 8.616h-.001.001c-1.206 2.379-2.696 1.901-3.624.006-.836-1.707.154-3.371 1.339-4.758 1.463-11.831.136-23.669.092-35.503l-.009-.025c-1.363-3.093-1.94-6.307-1.448-9.681l-.689-7.893a5.758 5.758 0 0 1-.257-.604c-1.216-2.857-1.753-5.83-1.355-8.961-.778-5.113-2.715-10.054-2.276-15.347-1.393-5.422-2.847-10.833-2.852-16.495v-.001c-1.375-1.53-1.727-3.318-1.337-5.294-5.982-26.522-13.326-52.64-24.802-77.365-6.546-14.104-13.999-27.786-20.892-41.733-1.905-3.855-4.37-7.544-4.847-11.976-.061-.569.452-1.554.926-1.728zm-16.064 96.916c.877-1.257 2.299-1.732 3.772-1.189 3.052 1.125 3.933 3.817 4.53 6.66 7.496 17.244 13.422 34.955 15.965 53.673 1.283 1.509 1.706 3.238 1.321 5.173h.002c.059.711.121 1.422.181 2.133h-.001c.686 1.691 1.074 3.409.481 5.218l.001.004c1.697 2.367 1.974 5.028 1.603 7.821.786 2.473 1.139 4.979.574 7.554l.002.007v-.003c1.786 3.86 2.031 7.931 1.612 12.09.852 6.123 1.182 12.264.642 18.435l.001.012v-.008c1.72 9.525 1.64 19.053-.006 28.582.593 9.095.049 18.165-.587 27.234.025 5.709.073 11.419.069 17.128-.012 14.644-.047 29.288-.074 43.931l.055 2.157.554 7.875c.02.043.034.087.053.13 1.329 3.012 1.932 6.145 1.512 9.444l.564 5.487.001.004v-.001c1.461 2.339 2.091 4.871 1.747 7.627 2.535 9.076 4.975 18.178 7.626 27.22 3.981 13.576 9.27 26.675 14.771 39.691 2.588 2.792 4.868 5.777 5.942 9.515.482 1.745-.072 2.461-1.899 1.912l.003-.003-.003.003c-4.015-1.394-5.339-4.915-6.668-8.432-3.216-4.03-4.832-8.869-6.768-13.533-6.122-14.746-10.647-30.019-14.779-45.414-.462-1.721-.42-3.577-.612-5.37l-.001-.004c-1.552-1.576-1.835-3.511-1.577-5.6l-.555-3.446-.001-.003c-1.48-2.277-2.014-4.755-1.576-7.439l-.584-5.62a.008.008 0 0 0-.002-.005c-1.506-3.069-1.952-6.303-1.472-9.677l-.098-2.149c-.78-6.125-1.521-12.25-.416-18.417v-.001.001c-1.656-6.639-1.633-13.278-.002-19.917-1.199-12.703-.239-25.382.429-38.064l.013-2.143c-.064-2.135-.3-4.281-.166-6.403 1.011-16.05.16-32.102.141-48.153l-.553-12.041a7.74 7.74 0 0 1-.319-.88c-1.271-3.572-1.677-7.268-1.341-11.067l-.519-5.64c-.001-.002-.001-.005-.003-.007-1.242-2.318-1.872-4.763-1.506-7.41l-.246-2.241-.593-3.568c-1.261-1.515-1.748-3.227-1.309-5.173-3.358-16.295-8.712-32.018-13.719-47.84-2.228-2.119-2.024-6.214-5.97-7.053-.939-.203-.849-1.938-.242-2.807zm-9.968 84.457c2.838-5.049 5.037-10.458 7.499-15.716.595-1.271.727-2.92 2.944-2.75 1.566 1.619.706 3.813.569 5.707-.606 8.331-1.121 16.692-2.308 24.95-1.656 11.534-5.245 22.596-9.177 33.559-4.166 11.615-8.103 23.283-9.991 35.589-2.614 17.035-2.396 34.057-.57 51.09 2.365 22.056 7.291 43.701 10.85 65.568.875 5.377 2.042 10.713 2.751 16.11 1.103 8.395.372 16.631-2.572 24.665-9.77 26.663-21.84 52.234-36.145 76.758-19.288 33.067-43.989 61.331-74.648 84.337-16.879 12.665-34.428 24.27-53.071 34.204-14.094 7.51-27.952 15.472-42.171 22.733-15.899 8.121-32.568 14.34-50.259 17.318-12.63 2.126-25.214 2.235-37.855-.781-14.541-3.468-28.567-8.351-42.23-14.249-18.63-8.043-32.634-21.568-43.277-38.587-12.133-19.403-24.032-38.954-35.868-58.541-16.152-26.729-26.808-55.47-31.544-86.414-1.481-9.676-3.618-19.265-5.792-28.817-.877-3.853-2.352-7.648-4.076-11.217-8.847-18.314-10.311-37.735-8.391-57.519 1.653-17.03 5.106-33.754 11.092-49.86 6.147-16.54 15.906-30.981 26.572-44.823 8.686-11.272 18.85-21.167 29.815-30.226 6.763-5.588 14.159-10.242 22.279-13.524 16.589-6.705 33.692-11.102 51.722-11.955 33.424-1.582 66.752-4.439 99.269-12.853 55.128-14.265 107.934-34.121 155.49-66.23a31.066 31.066 0 0 1 2.782-1.645c.302-.161.711-.122 2.587-.397-3.99 16.274-7.481 31.446-11.459 46.488-4.826 18.246-10.09 36.377-15.114 54.571-3.401 12.316-8.17 24.044-14.689 35.049-.924 1.56-1.928 3.115-2.554 4.8-1.229 3.308-.833 6.454 1.741 9.077 2.765 2.818 6.061 4.196 9.857 2.529a55.087 55.087 0 0 0 8.561-4.714c36.517-24.571 65.8-55.884 87.381-94.284zm-461.594-11.366c1.736-2.143 3.854-3.757 6.479-4.668.417-1.085 1.127-1.764 2.359-1.726 1.152-1.31 2.393-2.482 4.236-2.713.404-.98 1.046-1.607 2.188-1.514 8.082-5.561 16.386-10.696 25.882-13.557l.018-.015c1.919-1.78 4.2-2.548 6.794-2.444 1.916-2.118 4.486-2.084 7.048-2.08l.602.107c1.714-1.965 4.012-2.084 6.358-1.961 1.263.067 1.4 1.053 1.458 2.042-.296.606-.487 1.656-.903 1.754-14.102 3.332-26.976 9.68-39.826 16.091-.582 1.107-1.453 1.762-2.744 1.764l-.463.242c-.343.684-.895 1.062-1.657 1.132l-2.151 1.196c-.482 1.069-1.248 1.714-2.475 1.678l-.423.607-.738-.044h-.01l.009.001c-.594 1.257-1.556 1.964-2.979 1.975l-.073-.017c-.655.34-1.179.849-1.731 1.323l1.731-1.322c-.382 1.283-1.272 1.902-2.581 1.972-.893 1.197-1.855 2.298-3.469 2.49-6.599 6.528-14.094 12.186-19.348 20.027-.534.797-1.803 1.471-2.558.319-.501-.765-.766-2.218-.368-2.939 1.2-2.177 2.592-4.311 4.24-6.166 4.512-5.078 9.149-10.056 15.097-13.551h.003l-.005-.003zm405.756-99.8c4.879-4.226 9.729-8.486 14.669-12.637.687-.578 1.902-1.299 2.695.079.546.949.756 2.02-.066 2.96-3.061 3.499-6.131 6.994-10.318 9.237-.35 1.101-1.05 1.759-2.246 1.797l-.349.244a8.114 8.114 0 0 1-1.95 1.538c-.233.689-.707.965-1.421.826h-.001c-.551 1.188-1.436 1.902-2.784 1.955 0 0-4.682 4.13-6.611 4.229l-.262.143a5.993 5.993 0 0 1-2.046 1.414l-1.881.918c-.56 1.04-1.374 1.664-2.604 1.618-1.605 1.201-2.987 2.852-5.297 2.639l-.002.001c-.686 1.289-1.737 1.99-3.223 1.98l-.248.111c-1.083 1.26-2.293 2.275-4.104 2.136l-.177.071c-1.081 1.334-2.358 2.283-4.191 2.147l-.129.05c-1.051 1.428-2.396 2.273-4.236 2.14l-.12.044c-1.054 1.425-2.404 2.26-4.24 2.123l-.142.052c-1.073 1.367-2.394 2.232-4.216 2.087l-.204.074c-1.238 1.358-2.664 2.312-4.609 2.161l-.675.089-.002.001h.001c-1.195 2.028-3.228 2.395-5.306 2.672v.001c-2.577 2.125-5.484 3.509-8.823 3.919-1.409 1.042-3.418.662-4.707 1.989l-.834.123c-.007.001-.013.003-.021.003l.019-.002c-.802 1.235-1.913 1.882-3.414 1.782l-.775.546-.946-.041c-1.322 1.481-2.957 2.171-4.947 1.972l-.843.124h-.001c-2.874 2.441-6.346 3.409-9.956 4.042l-.001-.001v.002c-18.817 7.602-37.898 14.358-57.937 18.037h-.001.001c-5.322 2.666-10.986 3.9-16.912 4.034l-.001-.002c-.036 0-.424-.015-.424-.015l-.007.003c-2.29 1.564-4.78 2.349-7.579 1.899l-4.479.612-.865.225c-6.941 2.18-13.972 3.866-21.311 3.845-.015.006-.765.469-.765.469s-.879-.154-.885-.153l-.011-.005.005.005c-3.736 2.112-7.784 2.257-11.913 1.893-3.083 2.659-6.818 2.277-10.477 2.249l-.442-.075c-2.889 2.459-6.34 2.401-9.824 2.19l-.023-.016c-1.94 1.714-4.2 2.235-6.717 1.797l-4.128.795c-6.673 2.837-13.591 4.846-20.718 6.155-.024.002-.046.008-.07.01.024-.002.046-.007.07-.009-.74 1.423-1.962 1.935-3.5 1.849l-.667.513-.838-.077-22.012 11.382-.001-.001.001.002c-.272 1.154-1.126 1.555-2.187 1.69l-9.249 10.129c-3.757.269-2.091-2.049-1.776-3.723 1.148-4.464 4.458-6.942 8.248-8.978l.003.001-.002-.001c.909-1.436 2.155-2.354 3.887-2.515l.219-.1c.349-1.23 1.258-1.664 2.437-1.712 4.598-3.77 9.841-6.317 15.455-8.163l2.151-.73a10.71 10.71 0 0 1 1.747-.968c7.171-3.455 14.594-6.119 22.529-7.179a3655.4 3655.4 0 0 0 3.523-.709h.001c4.82-2.625 10.208-3.175 15.461-4.178 6.7-1.279 13.425-2.428 20.139-3.633h.001-.001l6.331-.797c4.881-2.493 10.33-2.207 15.524-3.169 2.289.115 4.671.87 6.677-.969l.406-.397.497.275a.03.03 0 0 1 .009-.002h-.003c1.53-1.207 3.233-1.805 5.204-1.431l6.487-1.086c4.987-2.122 10.232-3.134 15.597-3.636l58.719-17.881c2.444-2.443 5.87-2.469 8.845-3.602 2.743-1.256 5.309-3.005 8.488-3.046.704-.312 1.38-.676 2.028-1.092l19.385-8c9.831-5.567 20.031-10.381 30.379-14.894 2.086-2.159 4.644-3.48 7.524-4.225l.002-.002a2.591 2.591 0 0 1 1.669-1.111l2.369-1.179c.744-.608 3.209-1.871 3.848-2.252.567-1.169 1.497-1.786 2.796-1.844l.135-.076a6.569 6.569 0 0 1 2.074-1.464c.345-.678.894-.968 1.648-.872l.001-.001c.575-1.105 1.419-1.832 2.712-1.92l.262-.155a5.861 5.861 0 0 1 1.775-1.372zm-145.043-43.03c.76-1.588 1.268-3.356 2.986-4.276 4.146-6.78 10.495-10.987 17.228-14.745h.001c.573-1.14 1.444-1.841 2.765-1.881l.173-.105a6.716 6.716 0 0 1 2.035-1.464c.364-.672.926-.97 1.687-.895.567-1.169 1.47-1.824 2.796-1.837 2.248-2.197 4.788-3.907 7.868-4.716.603-1.138 1.515-1.791 2.836-1.797l.328-.156c4.547-3.615 9.458-6.606 14.89-8.705l.238-.14a9.996 9.996 0 0 1 1.905-1.298l2.111-1.003c.471-1.003 1.173-1.641 2.363-1.525 2.699-2.092 5.476-4.044 8.847-4.931a9.882 9.882 0 0 1 1.974-1.322l2.014-.97c.485-1.049 1.237-1.673 2.455-1.567.318-.614.812-.841 1.485-.682.601-1.171 1.561-1.768 2.873-1.798l.253-.14a4.815 4.815 0 0 1 1.789-1.224l2.156-1.08c.503-.956 1.188-1.628 2.366-1.548l23.83-16.028c1.538-1.904 2.961-3.924 4.682-5.645.553-.553 1.991-.631 2.854-.368 1.28.391 1.061 1.695.583 2.597-1.326 2.5-2.855 4.868-5.582 6.114h-.001v.001c-6.388 6.596-14.129 11.239-22.213 15.387-.37.614-.908.984-1.614 1.109l-2.221 1.169c-.463 1.005-1.176 1.625-2.347 1.549-.3.625-.782.84-1.447.645-.611 1.136-1.518 1.8-2.851 1.784l-.383.202a2.18 2.18 0 0 1-1.658 1.097l-2.328 1.221c-.455.936-1.111 1.553-2.234 1.455-2.761 2.096-5.593 4.066-8.989 5.028a2.901 2.901 0 0 1-1.773 1.159l-2.243 1.099c-.464.949-1.138 1.564-2.272 1.464-.405.652-.984.906-1.738.76-4.089 3.426-8.678 6.01-13.564 8.1-4.877 3.54-9.903 6.835-15.406 9.343-.314.887-.867 1.427-1.872 1.335l-1.886 1.003c-6.619 5.786-14.51 10.074-20.101 17.071-.653 1.245-1.197 2.564-1.994 3.708-.6.86-1.552 1.497-2.728.936-1.64-.787-1.605-2.072-.926-3.49zm-297.66 68.558c.463-2.377 2.337-3.331 4.265-4.231l.336-.274a7.108 7.108 0 0 1 1.796-1.537c3.879-3.806 7.956-7.337 13.069-9.433h.001v-.001c.844-1.518 2.221-2.205 3.867-2.47 2.556-2.886 5.916-4.48 9.414-5.849 1.29-1.151 2.52-2.413 4.443-2.389v.001l.001-.001.79-.21.001-.003c.677-1.398 1.838-2 3.349-2.021l.131-.061c1.045-1.435 2.414-2.244 4.229-2.191l.059-.022c1.026-1.536 2.482-2.224 4.307-2.183l.031-.007c1.026-1.558 2.501-2.219 4.332-2.172l.035-.008c1.039-1.527 2.504-2.187 4.325-2.123l.097-.036c1.077-1.404 2.465-2.164 4.268-2.067l.193-.074c1.165-1.326 2.546-2.187 4.393-2.048 3.177-2.313 6.721-3.79 10.547-4.627 4.821-2.982 9.991-5.092 15.548-6.237 4.161-2.162 8.412-4.072 13.11-4.751 1.442-1.701 3.345-2.145 5.458-2.019l.01-.006c2.131-1.775 4.597-2.565 7.358-2.475 1.149-1.667 2.841-1.939 4.698-1.786v.002l.002-.002c3.926-2.168 8-3.929 12.49-4.551 3.368-2.245 6.953-3.948 11.036-4.394l.175-.002c1.039-1.654 2.632-2.085 4.451-2.019l.078-.023c1.205-1.369 2.661-2.182 4.543-2.058 7.412-4.111 14.883-8.103 22.819-11.142l.004-.002h-.001c5.681-4.297 11.855-7.755 18.332-10.694l.126-.113c.413-.99 1.066-1.63 2.224-1.545.339-.623.859-.884 1.561-.781.581-1.209 1.526-1.854 2.881-1.869l23.392-15.61c.466-1.169 1.304-1.844 2.575-1.946l.166-.112a19.68 19.68 0 0 1 2.011-1.548l4.218-2.899c.422-1.041 1.112-1.729 2.301-1.769l.426-.278a3.664 3.664 0 0 1 1.722-1.348c1.214-1.331 2.421-2.672 4.319-3.027l.096-.032a14.041 14.041 0 0 0 2.181-1.823l.439-.298a3.528 3.528 0 0 1 1.744-1.398c4.765-4.357 9.674-8.529 15.248-11.845 3.101-3.529 6.73-6.407 10.784-8.763 3.827-4.326 8.338-7.82 13.222-10.859a40.794 40.794 0 0 1 10.626-8.726c3.81-4.379 8.363-7.86 13.241-10.947 3.83-4.328 8.446-7.685 13.292-10.758 2.361-2.889 5.234-5.127 8.58-6.764 3.109-3.556 6.844-6.317 10.942-8.618.373-1.062 1.052-1.739 2.232-1.794l.391-.275a4.896 4.896 0 0 1 1.815-1.473c.232-.716.722-1.031 1.469-.945.525-1.196 1.414-1.916 2.727-2.077l.039.019.002-.001-.002.001c.313-1.172 1.057-1.824 2.285-1.892l.273-.188a8.034 8.034 0 0 1 1.96-1.544c.223-.69.691-.975 1.406-.856.541-1.188 1.454-1.884 2.748-2.077l.002.001-.001-.002c2.402-2.865 5.478-4.779 8.849-6.279l.305-.189a8.635 8.635 0 0 1 1.875-1.404c4.74-3.753 9.631-7.264 15.325-9.473 8.124-5.514 16.659-10.21 26.09-13.124 3.127-2.403 6.876-3.358 10.527-4.544l.003-.001c3.652-3.053 7.887-1.579 12.183-1.829.186 3.167-2.083 3.129-3.839 3.641l-11.325 3.514-30.897 15.02c-4.201 3.419-8.755 6.274-13.638 8.61a11.544 11.544 0 0 1-1.982 1.426c-.303.687-.826.973-1.568.859-2.425 2.925-5.596 4.8-8.975 6.383h-.001v.001l-.266.066-.001.001c-.289 1.204-1.056 1.819-2.283 1.868l-.411.279a3.423 3.423 0 0 1-1.644 1.301c-1.915 2.01-3.938 3.876-6.6 4.874l-.48.348a5.12 5.12 0 0 1-1.697 1.375c-4.714 4.383-9.67 8.451-15.217 11.756-2.266 2.908-5.148 5.038-8.419 6.678-3.878 4.319-8.471 7.752-13.377 10.797-3.866 4.234-8.334 7.733-13.167 10.787h-.001c-3.111 3.517-6.655 6.512-10.728 8.867l-.002-.002.001.002c-3.789 4.376-8.34 7.824-13.218 10.876-3.12 3.511-6.687 6.468-10.817 8.727-3.975 4.388-8.672 7.871-13.707 10.929a6.676 6.676 0 0 1-1.727 1.392c-1.118 1.311-2.267 2.58-4.065 2.959-.477 1.115-1.25 1.846-2.512 1.945l-.228.162a14.42 14.42 0 0 1-1.974 1.569c-1.139 1.32-2.323 2.576-4.136 2.952-.4 1.08-1.116 1.735-2.316 1.747l-.415.269a5.736 5.736 0 0 1-1.838 1.419c-.3.715-.835 1.033-1.606.954-.506 1.152-1.338 1.849-2.635 1.894-8.362 6.714-17.232 12.663-26.688 17.73-.207.852-.675 1.332-1.611 1.166l-2.155 1.039c-4.423 3.904-9.498 6.698-14.969 8.824h-.004l.002.002c-11.076 7.37-22.98 13.043-35.55 17.352-2.427 2.307-5.588 2.885-8.649 3.697-4.11 2.247-8.437 3.911-13.036 4.839a4.452 4.452 0 0 1-.85.455c-5.301 2.869-10.974 4.696-16.869 5.909l-.001-.003v.003c-4.13 2.066-8.346 3.896-12.945 4.662-4.722 2.913-9.906 4.676-15.22 6.117l-43.081 20.239c-.568 1.203-1.542 1.715-2.84 1.679-.214.61-.629.815-1.243.616-2.754 2.742-6.129 4.455-9.694 5.855-1.119 1.212-2.286 2.346-4.046 2.536l-.001-.001v.002c-2.484 2.872-5.678 4.771-8.965 6.542a21.42 21.42 0 0 0-2.007 1.637l-.636.454a2.833 2.833 0 0 1-1.625 1.34c-.237.747-.745 1.091-1.526 1.032h-.001c-1.207 1.971-2.729 3.516-5.172 3.81-1.014 1.121-1.995.568-2.727-.248-.61-.678-.27-1.374.61-1.712zm-15.321 213.795c.838-3.379 2.793-6.142 4.873-8.836a34.253 34.253 0 0 0 1.507-2.316l1.111-2.144a4.296 4.296 0 0 1 1.187-1.897l.062-.12c.028-1.291.556-2.247 1.812-2.718-.085-.605.113-1.095.597-1.469 2.868-5.343 4.798-7.043 5.787-5.328 1.835 3.18-1.173 5.007-2.412 7.306-.143.266-.583.372-.886.552h-.002l.001.002a2.01 2.01 0 0 1-.773 1.641c.198 1.384-.517 2.268-1.612 2.947l-.001.002c.163.653-.049 1.145-.636 1.475-.546.879-1.353 1.594-1.64 2.634.098.785-.192 1.382-.869 1.791a7.502 7.502 0 0 1-1.417 2.164l-.034.068c-.04 1.434-.711 2.484-1.939 3.197-.074 1.618-.61 2.971-2.147 3.751-10.15 19.777-16.841 40.81-22.876 62.117-3.065 10.82-7.035 21.369-12.399 31.313-2.062 3.823-3.966 7.774-7.136 10.882.017 1.04-.545 1.613-1.501 1.868l-.22.298c-.666 2.113-1.982 3.686-3.929 4.735-5.927 7.792-12.708 14.804-19.719 21.607-3.763 5.54-8.088 10.61-12.83 15.333-.211 1.175-.718 2.115-1.953 2.481l-.122.219c-1.215 2.473-2.368 4.977-3.706 7.379-.207.371-1.334.504-1.899.321-.53-.172-1.208-.879-1.251-1.398-.25-2.978 1.06-5.386 3.084-7.465 4.267-7.385 9.773-13.759 15.977-19.563 5.828-7.921 12.727-14.866 19.752-21.697.836-2.125 2.141-3.853 4.194-4.948-.06-.71.242-1.194.906-1.452-.001-1.105.617-1.742 1.593-2.109l.088-.145c.033-1.3.682-2.177 1.85-2.697 8.874-16.767 14.631-34.699 19.753-52.868 4.246-15.061 9.561-29.697 17.341-43.342.713-1.248 1.618-2.383 2.434-3.571zm-229.218 285.783c-.066 1.026.07 2.121-.254 3.058-.329.952-1.155 1.585-2.366 1.575-1.397-.012-1.763-1.047-1.796-1.975-.097-2.766-.177-5.592 1.979-7.812l5.677-21.171c-.339-1.177.107-2.077.991-2.823l.614-3.506c-.288-2.093.144-3.979 1.597-5.573l.406-3.131.2-2.249c-.365-1.992.167-3.745 1.41-5.31l.878-5.666c-.277-2.085.014-4.024 1.453-5.669-.442-8.406 2.027-16.484 2.781-24.756-.414-3.359-.211-6.627 1.413-9.689l.001-.005.801-7.836c-.424-2.748-.167-5.368 1.462-7.728-.168-8.102 2.436-15.69 4.524-23.337 6.025-22.062 14.207-43.244 26.441-62.701 2.121-5.695 5.52-10.625 9.201-15.387a23.55 23.55 0 0 1 1.534-2.127l.031-.058c.108-1.307.802-2.195 1.957-2.756-.086-.763.221-1.3.922-1.613a6.51 6.51 0 0 1 1.485-1.994c2.222-4.303 4.865-8.295 8.52-11.541h.001c.897-2.468 2.362-4.516 4.495-6.07 3.102-5.698 7.208-10.631 11.656-15.304a5.22 5.22 0 0 1 1.526-1.841l.243-.329a14.64 14.64 0 0 0 1.87-2.191l.048-.125v-.001c3.007-4.904 6.463-9.444 10.774-13.29.564-1.91 1.87-3.227 3.453-4.324 3.301-5.488 7.541-10.229 11.853-14.913h.001c.721-1.845 2.124-3.115 3.82-1.715 1.725 1.424.62 3.003-.981 4.075-2.455 4.066-5.232 7.873-8.842 11.011-.205 1.211-.795 2.094-2.044 2.421l-.039.106c-.856 2.565-2.532 4.498-4.665 6.082l-.001-.001v.001c-3.024 4.931-6.426 9.56-10.755 13.447-.454 1.781-1.718 2.939-3.09 4.013a4.463 4.463 0 0 1-1.458 1.769l-.301.417c-.672.66-1.26 1.389-1.776 2.177-2.328 4.165-5.075 8.005-8.666 11.192l-.002-.001.001.001c-.928 2.509-2.491 4.55-4.587 6.196-2.415 4.841-5.84 8.968-9.256 13.102-.478.736-1 1.438-1.569 2.106l-.067.122c-.083 1.325-.793 2.224-1.921 2.84.138.715-.127 1.216-.797 1.504a43.823 43.823 0 0 1-1.542 2.209c-2.323 4.898-4.816 9.691-8.458 13.779-.872 1.961-1.624 3.985-2.634 5.872-11.121 20.778-19.542 42.556-24.506 65.633-.454 2.109-1.2 4.156-1.81 6.232.318 3.047-.188 5.936-1.466 8.678a4.817 4.817 0 0 1-.325.682l-.509 5.904c.446 3.693.031 7.266-1.29 10.713a6.875 6.875 0 0 1-.318.816l-.517 5.882c.665 6.016-1.148 11.725-2.167 17.532.354 3.138-.181 6.112-1.479 8.947a5.287 5.287 0 0 1-.276.6l-.441 3.531c-.482.541-.709 1.148-.82 1.786.193.047.395.155.606.334.398 1.983-.17 3.718-1.363 5.291-.148 3.038-.008 6.146-2.073 8.729a4341.85 4341.85 0 0 1-.728 3.496c.255 2.105-.028 4.057-1.616 5.635v.003l-.547 3.097c.232 2.133-.071 4.108-1.687 5.694-.025 6.494-2.801 12.261-4.82 18.228zm132.172-84.032c-4.855 15.279-12.22 29.336-21.001 42.69.037 1.227-.641 1.985-1.654 2.524l-1.068 1.969a4.513 4.513 0 0 1-1.274 1.846l-.116.196c-.059 1.259-.725 2.102-1.771 2.686-.033.04-.067.061-.104.061.097.786-.214 1.347-.93 1.684a6.27 6.27 0 0 1-1.437 2.002c-4.68 8.221-9.994 15.936-17.483 21.917-.314 1.12-.895 1.95-2.184 2.014-.206 1.256-.873 2.067-2.182 2.256l-.001-.001v.002c-.2 1.276-.902 2.064-2.208 2.262l-.001-.001v.002c-.172 1.273-.878 2.018-2.166 2.183-.196 1.286-.935 2.027-2.223 2.219-.186 1.316-.975 2.025-2.256 2.236-.176 1.315-.992 1.965-2.241 2.17-.064 1.3-.909 1.876-2.032 2.195v.001c-5.492 6.964-12.417 12.344-19.451 17.604-3.75 4.361-8.204 7.87-13.1 10.846-6.854 6.507-14.357 12.062-23.179 15.644-1.324.537-2.733.95-4.14 1.142-.397.054-.985-.836-1.375-1.372-.188-.257-.278-.792-.135-1.041.338-.586.737-1.339 1.296-1.566 9.156-3.714 16.524-10.276 24.752-15.462 3.861-4.284 8.377-7.778 13.184-10.919 6.188-6.268 12.604-12.274 19.808-17.384.398-1.165 1.185-1.867 2.416-2.046.191-1.307 1.021-1.956 2.253-2.189.151-1.277.941-1.904 2.144-2.112v-.001c.759-2.052 2.171-3.451 4.212-4.223l.001.001v-.002c.203-1.245.866-2.041 2.166-2.216.187-1.229.829-2.017 2.112-2.188.176-1.251.903-2.037 2.068-2.451l18.094-23.911c.001-1.117.638-1.773 1.595-2.196l.006-.047c.093-1.357.768-2.331 1.948-2.975v-.001c-.182-.619.029-1.042.633-1.268.635-.816 1.412-1.538 1.71-2.578l.97-1.888a5.7 5.7 0 0 1 1.342-2.041l.052-.098c.054-1.365.72-2.349 1.88-3.026 2.114-4.173 4.189-8.366 6.349-12.516 4.349-8.355 8.448-16.811 11.152-25.876.3-1.007.752-2.032 1.39-2.849.363-.465 1.317-.815 1.873-.679.498.122 1.181 1.006 1.147 1.51-.122 1.765-.307 3.582-.841 5.261zm-5.404-282.271c-.133 1.233-.797 1.98-2.019 2.22l-.051.151c-4.952 7.823-11.012 14.958-14.719 23.552-2.713 6.289-4.972 12.675-3.049 19.694l-.001.003.002-.002c2.835 3.04 6.163 4.626 10.449 3.843 1.291-.236 3.077-.24 3.035 1.676-.036 1.669-1.786 2.143-3.116 2.399-5.278 1.017-9.848.04-12.713-5.083-3.558-2.882-3.472-6.903-2.913-10.77.507-3.504 1.406-7.039 2.728-10.32 4.169-10.341 9.774-19.823 17.812-27.707h.001l-.001-.001c7.418-9.932 15.846-18.873 25.831-26.284 3.729-4.524 8.334-7.954 13.437-10.763 8.054-6.853 16.688-12.806 26.454-16.995 3.07-2.323 6.357-4.213 10.143-5.114 3.838-3.35 8.622-4.541 13.366-5.782 1.139-.298 2.008.472 2.484 1.457.549 1.136-.02 2.147-1.028 2.52-3.953 1.462-7.961 2.775-11.949 4.144l-.003-.001.002.001a51295.36 51295.36 0 0 1-10.446 5.109l-.002-.001v.002l-26.306 17.263c-3.954 4.137-8.586 7.422-13.301 10.6-8.043 8.062-16.085 16.125-24.127 24.189zm142.082 698.156c-3.913 12.471-8.731 24.631-14.179 36.509-20.771 45.286-45.544 88.44-70.673 131.375-15.409 26.327-31.703 52.137-47.52 78.228-7.341 12.109-14.632 24.253-21.67 36.539-3.42 5.969-6.155 12.327-9.302 18.457-1.874 3.651-4.102 4.776-8.899 4.218-.758-.291-2.457-.879-4.104-1.586-9.725-4.174-19.057-9.102-27.051-16.094-12.646-11.061-26.786-20.038-40.909-28.901-19.509-12.244-40.99-20.248-63.457-25.184-9.996-2.196-7.845-4.518-3.495-10.386 4.105-5.539 8.675-10.742 13.18-15.973 4.507-5.233 9.077-10.42 13.81-15.449 40.515-43.043 75.028-90.655 106.985-140.228 15.161-23.518 29.654-47.407 42.388-72.356 5.944-11.646 12.445-23.022 20.924-33.105 2.576-3.063 5.093-6.209 9.147-7.452 3.211-.985 6.201-1.475 9.135 1.169 10.603 9.554 23.036 16.215 35.652 22.706 9.382 4.827 18.97 9.068 28.702 13.08 8.715 3.593 17.444 7.197 25.928 11.29 6.876 3.315 7.771 5.612 5.408 13.143zm20.293-48.66c-3.896 6.554-7.615 13.214-11.33 19.873-1.235 2.214-2.823 3.428-5.241 2.144-13.497-7.171-28.056-11.87-41.933-18.124-10.899-4.911-21.369-10.776-32.008-16.261a19.562 19.562 0 0 1-3.608-2.416c-6.158-5.189-6.245-5.01-3.1-11.583 4.39-9.177 7.678-18.791 10.813-28.474 6.307-19.483 3.447-38.001-5.379-55.955-4.978-10.126-10.725-19.815-17.675-28.724-7.599-9.742-15.363-19.354-23.054-29.024-3.849-4.839-7.465-9.827-10.373-15.315-7.417-13.997-8.141-28.425-2.787-43.203 3.972-10.965 9.102-21.339 16.293-30.612 2.003-2.583 3.889-5.259 5.752-7.946 11.434-16.491 14.196-34.648 10.316-54.064-.427-2.135-.726-4.318-1.388-6.381-2.134-6.659.074-12.207 4.428-17.058 2.656-2.96 5.537-5.802 8.681-8.223 9.01-6.939 14.608-15.961 17.577-26.84 2.596-9.512 5.022-19.175 4.079-28.997-1.567-16.321 6.829-25.535 20.103-32.804 14.977-8.201 29.853-7.471 45.226-2.097 1.98.692 3.019 2.031 3.481 3.783.643 2.437 1.178 4.948 1.351 7.456 2.367 34.335 12.884 66.182 29.886 95.883 10.461 18.275 21.712 36.098 32.644 54.103 6.217 10.24 12.747 20.286 18.048 31.067 4.98 10.128 8.89 20.656 12.498 31.325 3.205 9.477 3.32 19.273 3.344 30.72.801 14.732-3.324 29.813-10.25 44.636-22.93 49.073-48.733 96.578-76.394 143.111zm258.998-38.861c-26.23 29.621-50.542 61.019-81.122 86.594-12.653 10.582-26.603 18.778-41.606 25.5-14.53 6.51-27.418 4.402-39.452-5.685-6.759-5.665-12.18-12.476-17.294-19.524-10.031-13.825-18.952-28.344-26.835-43.523-4.845-9.33-10.164-18.421-15.478-27.498-1.861-3.179-2.033-5.93-.135-9.108 3.534-5.917 6.85-11.965 10.254-17.96 1.21-2.131 2.929-2.803 5.423-2.548 47.015 4.811 89.8-7.984 129.896-31.573 14.165-8.334 26.923-18.498 37.788-30.928 1.161-1.328 2.104-3.036 4.248-3.231 2.527 3.047 3.235 6.969 4.689 10.528 7.552 18.487 16.101 36.508 25.093 54.328 1.634 3.239 3.127 6.556 4.906 9.712 1.05 1.86.957 3.412-.375 4.916zm240.034 389.97c-1.116-1.426-1.999-3.031-3.025-4.53-35.339-51.6-67.36-105.216-97.707-159.879-31.209-56.215-60.116-113.628-89.781-170.649-17.261-33.178-34.863-66.182-50.968-99.944-8.443-17.7-16.273-35.663-21.697-54.589-3.623-12.643-6.088-25.443-6.071-38.627.011-8.724.156-17.452.461-26.17.1-2.862.793-5.721 1.398-8.542.652-3.041 2.488-4.84 5.534-6.072 25.322-10.245 48.843-24.058 72.38-37.692 29.969-17.359 57.963-37.476 81.555-63.215 14.292-15.594 27.296-32.117 37.996-50.39 10.096-17.242 19.819-34.68 27.463-53.193.478-1.157.392-2.821 2.921-3.426 6.227 10.284 12.698 20.706 18.881 31.296 3.033 5.194 3.572 11.08 2.758 16.945-1.806 13.016.462 25.269 5.984 37.111 1.831 3.926 2.93 8.161 3.49 12.549 1.563 12.267-1.452 23.007-9.934 32.149-13.66 14.723-28.553 27.896-45.851 38.328-10.877 6.56-21.349 13.8-31.924 20.851-16.456 10.973-23.82 26.71-24.383 46.194-.383 13.23 1.171 26.239 5.076 38.748 5.295 16.962 10.284 34.043 16.826 50.612 7.78 19.704 18.157 38.022 29.724 55.641 48.884 74.459 99.702 147.546 155.513 217.042 17.99 22.401 37.027 43.907 56.554 64.982 7.395 7.981 14.601 16.138 22.15 24.499-2.955 1.849-5.33 3.469-7.826 4.877-49.337 27.82-98.688 55.617-148.039 83.413-1.581.89-3.246 1.641-4.779 2.604-1.916 1.203-3.449.65-4.679-.923zm29.95 71.833c-5.033-10.444-9.956-20.944-14.689-31.527-2.215-4.952-3.945-10.124-5.803-15.23-2.255-6.197-1.954-7.193 3.698-10.385 25.251-14.264 50.539-28.463 75.808-42.696 25.585-14.411 51.163-28.834 76.744-43.252 1.894-1.067 3.767-2.176 5.695-3.18 4.214-2.195 5.329-2.167 8.579 1.088 12.911 12.929 23.807 27.29 31.064 44.074-1.319 3.088-4.189 4.154-6.503 5.828-12.052 8.718-24.272 17.212-36.163 26.143-23.841 17.907-49.169 33.428-75.354 47.595-18.225 9.861-37.833 16.487-57.031 24.06-3.124 1.231-4.437.819-6.045-2.518zm450.34 206.789c-6.86 16.128-14.855 31.485-24.588 46.03-10.205 15.252-22.782 28.27-36.65 40.138-6.055 5.182-12.857 9.482-18.017 15.736-1.331 1.613-3.447 2.636-5.317 3.735-6.887 4.049-13.922 7.853-20.72 12.042-24.909 15.349-52.362 23.127-81.033 26.999-15.604 2.108-31.268 1.055-46.672-2.035-51.492-10.331-99.221-29.939-143.167-58.728-11.975-7.844-22.026-17.802-31.46-28.437-3.391-3.823-5.998-8.2-8.31-12.755-6.451-12.716-10.733-26.203-13.813-40.052-1.428-6.417-.941-13.001.278-19.507 2.152-11.486 5.942-22.436 10.402-33.198 2.082-5.024 4.261-10.065 5.69-15.291 2.843-10.395 2.405-20.847-.585-31.218-2.217-7.691-4.901-15.2-8.265-22.458-7.639-16.484-14.795-33.138-19.5-50.763-1.383-5.183-3.529-10.163-5.54-15.843 11.848-4.698 23.225-9.381 34.729-13.728 14.299-5.403 27.99-12.033 41.332-19.454 25.117-13.969 49.302-29.345 72.232-46.717 11.291-8.555 22.976-16.595 34.563-24.755 13.736-9.674 14.951-14.934 7.153-30.139-6.689-13.044-14.875-24.927-25.492-35.123a89.298 89.298 0 0 1-9.405-10.592c-8.118-10.764-17.169-20.715-26.401-30.486-48.547-51.38-91.672-107.129-132.963-164.375-27.217-37.734-53.236-76.292-79.08-114.968-8.881-13.291-17.269-26.912-24.448-41.219-2.9-5.778-5.405-11.754-8.189-17.858 9.471-6.006 19.323-9.691 28.985-13.763.333-.14.703-.193 1.038-.331 39.454-16.268 79.546-14.11 119.797-3.817 56.036 14.329 105.015 41.743 147.607 80.694a305.207 305.207 0 0 1 41.958 47.222c25.649 35.709 51.943 70.982 75.515 108.141 18.68 29.447 37.491 58.825 53.04 90.116 6.468 13.017 12.385 26.255 16.819 40.143 2.332 7.303 4.091 14.713 5.091 22.27 1.803 13.626.119 26.833-5.871 39.321-2.354 4.909-4.992 9.681-7.417 14.557-7.767 15.621-9.688 31.686-4.485 48.622 4.129 13.443 10.823 25.351 19.696 36.1 9.493 11.5 19.399 22.637 30.005 33.139 8.791 8.705 17.12 17.81 24.645 27.666 13.713 17.962 22.437 38.184 26.66 60.214 6.859 35.783 4.601 70.755-9.847 104.725z"></path><path fill="#020101" d="m995.161 1666.462-.989 2.816c.38-.921.709-1.86.989-2.816z"></path><path d="M1484.766 1673.167c-.344-3.657-1.411-7.097-2.834-10.453-2.992-7.059-7.028-13.514-11.654-19.581-15.774-20.69-34.672-38.017-56.535-52.11-6.106-3.936-12.493-7.377-19.335-9.835-4.423-1.589-8.929-3.046-13.731-3.075-8.292-.05-17.404 5.426-16.665 17.235.207 3.31.987 6.41 2.099 9.507 2.602 7.243 6.554 13.723 11.04 19.9 15.093 20.783 33.655 37.943 54.876 52.297 6.319 4.274 12.947 8.013 20 10.943 5.04 2.093 10.183 3.854 14.085 3.761 13.499.171 19.768-6.718 18.654-18.589zm-32.866-2.835c-.717 1.42-2.272 1.495-3.712 1.494-.346 0-.735-.051-1.033-.211-4.438-2.375-8.319-5.405-11.032-9.724-1.13-1.799.455-4.764 3.978-4.859 2.907.498 6.721 2.111 9.389 5.769 1.039 1.425 1.988 2.974 2.638 4.603.332.832.189 2.103-.228 2.928z"></path><path fill="#020202" d="M1661.243 1497.075c-3.723-7.568-9.44-10.489-17.74-8.978-3.292.599-6.211 2.007-8.899 3.839-11.871 8.091-19.412 19.305-23.225 33.047-1.173 4.227-1.105 8.654-.453 12.966 2.035 13.456 14.367 20.004 26.826 14.451 3.035-1.353 5.65-3.23 8.056-5.439 9.728-8.928 13.767-20.997 18.041-32.917.354-.988.23-2.147.318-3.115-.615-4.775-.776-9.487-2.924-13.854zm-22.468 43.223c-.696.551-2.169.8-2.903.428-.689-.35-1.287-1.748-1.191-2.603.247-2.226 1.608-3.943 3.526-5.081.515-.305 1.474-.374 1.952-.088.512.307.696 1.16 1.043 1.812.425 2.356-.714 4.174-2.427 5.532zm7.315-34.237c-.259 1.092-.548 3.654-1.473 5.96-2.846 7.099-6.779 13.571-12.202 19.028-1.507 1.516-3.132 2.905-5.333 3.56-3.187.949-5.894-.854-5.781-4.217.06-1.795.098-3.688.68-5.35 3.026-8.643 7.547-16.386 14.372-22.633.794-.726 1.725-1.312 2.631-1.904 1.609-1.05 3.363-1.32 5.135-.538 1.354.597 2.077 2.466 1.971 6.094z"></path><path fill="#010101" d="M1457.339 1391.897c-7.042-8.137-19.238-9.713-28.763-4.107-1.862 1.096-3.714 2.353-5.229 3.875-10.184 10.233-17.641 22.075-20.84 36.32-.474 2.11-.839 4.296-.856 6.449-.089 11.596 7.583 20.006 19.155 21.159 6.38.635 12.385-.711 17.651-4.261 14.864-10.022 21.828-24.654 23.926-39.141-.015-9.165-.814-15.406-5.044-20.294zm-25.635 47.923c-.993.411-2.13-.194-2.459-1.261-.84-2.726.434-4.691 2.61-6.202.256-.178.618-.202.876-.281 1.418-.19 2.056.827 2.144 1.788.241 2.599-.574 4.882-3.171 5.956zm5.598-26.861c-2.234 8.171-6.454 15.253-12.131 21.472-1.198 1.313-2.664 2.454-4.187 3.376-1.577.954-3.459 1.226-5.175.331-1.821-.95-1.992-2.812-2.098-5.136.864-8.114 5.176-15.155 10.223-21.829 1.96-2.592 4.179-4.945 7.184-6.462 3.334-1.685 6.9.295 6.823 3.998-.028 1.423-.263 2.875-.639 4.25zM1174.352 2552.119c.129-11.443 2.998-22.311 7.459-32.704 4.146-9.659 8.986-19.018 13.355-28.584 3.462-7.581 6.849-15.207 9.943-22.944 2.57-6.43 4.358-13.026 2.799-20.162-.982-4.493.45-8.63 3.491-12.107 2.146-2.453 5.139-3.145 7.886-1.901 2.555 1.158 4.483 3.441 3.973 5.942-1.617 7.929 1.217 15.874-.712 23.803-2.067 8.495-4.604 16.782-8.339 24.684-4.806 10.167-9.691 20.298-14.485 30.471-4.034 8.561-7.227 17.351-8.593 26.827-1.973 13.691 1.064 26.059 9.296 36.982 13.293 17.637 29.977 31.507 48.991 42.604 4.415 2.577 9.244 3.973 14.423 4.502 5.853.598 8.908 3.716 8.533 7.775-.335 3.632-3.498 6.332-8.506 7.073-4.765.705-9.375-.009-13.936-1.553-4.505-1.525-8.678-3.676-12.672-6.182-17.353-10.885-32.82-23.979-46.016-39.683-10.884-12.954-17.073-27.705-16.89-44.843zM944.47 1977.933c-.564-24.382 6.266-46.6 19.089-67.156 6.557-10.512 14.172-20.216 22.187-29.628.705-.828 1.511-1.572 2.176-2.428 2.152-2.772 7.08-3.321 9.907-1.295 2.749 1.97 3.467 6.335 1.323 9.859-1.504 2.472-3.376 4.729-5.17 7.013-7.649 9.737-14.183 20.193-20.249 30.969-11.863 21.074-15.248 43.747-12.212 67.413 3.012 23.477 8.965 46.291 17.012 68.559 1.474 4.08 2.883 8.23 3.767 12.464.813 3.893-.927 6.942-3.803 8.205-3.389 1.488-7.316.423-9.42-3.101-1.846-3.092-3.307-6.451-4.626-9.813-9.055-23.086-14.81-47.058-18.622-71.498-1.006-6.437-.936-13.038-1.359-19.563zM948.756 2609.696c.441 9.47-.712 18.863-1.345 28.28-.147 2.182-.466 4.301-1.666 6.237-1.501 2.419-3.665 3.424-6.402 3.273-2.791-.153-4.683-1.608-5.869-4.153-1.314-2.82-.59-5.708-.513-8.582 1.058-39.522-3.052-78.221-17.619-115.396-6.619-16.891-13.557-33.623-21.355-50.002-1.243-2.611-2.479-5.269-3.281-8.031-.59-2.033-.724-4.287-.601-6.416.161-2.778 1.997-4.592 4.486-5.64 2.671-1.125 5.093-.275 6.965 1.639 1.496 1.53 2.866 3.329 3.793 5.25 16.735 34.678 32.392 69.766 39.247 108.024 2.695 15.041 3.567 30.273 4.16 45.517zM780.841 2264.356c-.019-13.925 3.021-24.664 8.723-34.629 3.968-6.933 8.03-13.82 12.289-20.577 6.902-10.95 11.455-22.63 12.134-35.686.092-1.764.451-3.666 1.256-5.207 1.257-2.407 3.519-3.625 6.33-3.386 2.779.235 4.898 1.704 5.693 4.318.62 2.039.689 4.289.742 6.451.28 11.507-2.661 22.337-7.548 32.609-2.644 5.559-5.988 10.787-9.062 16.138-2.893 5.038-6.022 9.948-8.738 15.078-6.833 12.907-7.753 26.416-2.832 40.082 5.462 15.166 12.929 29.223 24.743 40.576 2.359 2.267 4.658 4.583 6.052 7.644 1.182 2.595.764 4.898-.822 7.16-1.657 2.363-4.008 2.909-6.67 2.755-2.71-.156-4.723-1.746-6.689-3.361-5.083-4.177-9.474-9.013-13.383-14.292-8.061-10.888-14.055-22.877-18.626-35.58-1.223-3.398-2.077-6.977-2.662-10.544-.645-3.932-.785-7.949-.93-9.549zM1615.291 2312.337c-.645 20.44-4.706 39.159-11.541 57.268-2.832 7.502-6.972 14.377-12.23 20.468-12.175 14.105-26.023 26.316-41.912 36.101-5.876 3.619-12.028 6.767-19.039 7.638-1.785.222-3.61.525-5.381.376-3.15-.266-5.57-2.52-6.158-5.317-.633-3.011.422-5.855 3.125-7.51 1.838-1.124 3.854-2.001 5.869-2.784 21.641-8.409 37.991-23.651 52.715-40.934 4.271-5.014 7.089-10.955 9.268-17.149 5.082-14.446 7.964-29.396 9.56-44.573.72-6.844.807-13.782-.833-20.59-.17-.706-.384-1.408-.469-2.125-.632-5.321 1.907-9.256 6.261-9.753 3.617-.413 6.787 2.328 8.083 7.274.826 3.154 1.598 6.36 1.958 9.591.481 4.32.54 8.687.724 12.019z"></path><path fill="#020101" d="M757.051 2393.81c-22.692-.862-47.432-4.534-71.618-11.458-13.509-3.867-25.147-11.209-35.024-21.221-2.028-2.056-3.922-4.336-5.437-6.785-2.115-3.419-1.146-7.762 1.77-9.738 2.668-1.809 6.206-1.499 8.985.9 1.093.943 2.009 2.09 3.026 3.124 8.048 8.191 17.587 13.863 28.545 17.321 17.39 5.489 35.234 8.606 53.321 10.421 13.034 1.307 26.092 1.844 39.16.156 2.5-.323 5.083-.292 7.604-.103 2.801.211 4.615 1.936 5.431 4.615.896 2.942-.089 6.137-2.498 7.732-2.444 1.619-5.22 2.396-8.064 3.119-7.492 1.909-15.107 1.939-25.201 1.917zM1696.204 2595.011c-2.146 16.824-10.204 33.978-27.371 46.061-6.411 4.512-13.803 6.22-21.45 7.035-1.065.114-2.172.033-3.239-.115-3.678-.508-6.261-2.89-6.732-6.112-.432-2.962 1.521-6.291 4.936-7.625 3.025-1.182 6.227-1.906 9.344-2.859 6.791-2.076 12.37-5.931 16.772-11.496 5.484-6.933 9.199-14.74 11.259-23.307a28.269 28.269 0 0 0 .068-12.953c-1.639-7.225-4.671-13.095-13.445-13.003-.712.008-1.452-.136-2.136-.347-3.358-1.035-5.6-4.154-5.303-7.301.306-3.241 2.789-5.983 6.468-6.268 9.142-.708 17.33 1.415 23.101 9.207 5.603 7.565 7.892 16.196 7.728 29.083z"></path><path fill="#020202" d="M1213.45 2310.813c4.439.265 7.396 3.683 6.87 7.46-.195 1.403-.591 2.901-1.331 4.084-4.615 7.386-3.81 15.404-2.47 23.297 1.969 11.602 6.25 22.341 13.496 31.773 1.989 2.59 3.911 5.244 5.673 7.991.96 1.497 1.746 3.188 2.208 4.901.707 2.621.082 5.064-2.036 6.924-2.061 1.811-5.745 2.252-8.188.767-1.523-.926-2.911-2.167-4.137-3.475-16.5-17.591-24.401-38.365-22.97-62.544.398-6.73 2.873-12.71 6.937-18.024 1.611-2.105 3.738-3.449 5.948-3.154z"></path><path fill="#9eb3b3" d="M943.05 1601.899c.75-1.164 1.325-2.515 2.306-3.433.789-.739 2.098-.516 2.214.845.216 2.544-.175 5.005-2.097 6.949-.851-1.432-.279-3.652-2.423-4.361z"></path><path fill="#020101" d="M2103.161 2623.042c-20.874.596-40.978-3.523-60.355-11.35-5.374-2.17-10.632-4.677-15.055-8.562-4.595-4.036-7.42-8.916-6.718-15.262.531-4.8 4.991-7.732 9.398-6.389 1.85.563 3.447 1.647 4.084 3.328 2.765 7.294 9.202 9.722 15.618 12.351 21.245 8.705 43.403 11.248 66.105 9.583 10.838-.795 21.661-2.108 32.1-5.403 4.825-1.523 9.74-2.938 14.311-5.055 8.689-4.024 16.561-9.104 19.782-18.979.985-3.019 3.178-4.733 6.492-4.808 3.573-.081 6.393 2.193 6.832 5.634.427 3.345-.446 6.41-1.832 9.456-3.259 7.16-8.519 12.567-14.74 17.109-7.387 5.394-15.62 9.169-24.382 11.666-16.832 4.797-34 7.262-51.64 6.681z"></path><path fill="#020202" d="M1959.708 2014.172c-.662 19.933-2.359 39.77-6.419 59.347-1.036 4.995-2.384 9.889-5.981 13.77-2.304 2.486-5.015 4.103-8.595 3.824-3.694-.288-6.701-3.924-6.092-7.517.12-.708.29-1.449.625-2.074 6.541-12.206 6.996-25.826 8.389-39.054 1.666-15.825 3.068-31.773.9-47.738-1.272-9.365-3.256-18.535-6.632-27.379-1.422-3.727-2.841-7.279-7.011-9.106-3.892-1.705-4.458-5.462-4.034-9.267.723-6.485 7.784-9.55 13.029-5.634 3.546 2.647 5.96 6.319 8.146 10.082 5.7 9.81 9.29 20.436 11.333 31.535 1.773 9.631 3.056 19.348 2.342 29.211z"></path><path fill="#010101" d="M2110.908 2440.116c.057 3.757-1.705 6.573-4.824 7.71-2.903 1.059-6.58.025-8.676-2.893-1.234-1.719-2.035-3.809-2.744-5.833-9.303-26.58-23.065-50.755-39.598-73.424-5.128-7.031-10.417-13.951-15.787-20.8-4.252-5.423-8.701-10.697-14.379-14.756-.881-.63-1.748-1.316-2.485-2.104-1.948-2.079-2.337-5.652-.895-8.063 1.433-2.397 3.691-3.51 6.385-3.37 2.974.156 5.629 1.408 7.827 3.405 4.023 3.654 8.262 7.131 11.882 11.156 25.203 28.016 45.303 59.268 59.189 94.395 1.864 4.714 3.871 9.399 4.105 14.577z"></path><path fill="#020202" d="M1923.252 2548.397c5.177-.181 8.584 4.936 6.59 9.791-1.43 3.482-4.225 5.864-6.641 8.551-9.682 10.766-15.784 23.485-19.643 37.25-3.538 12.618-2.094 25.204 1.762 37.574.752 2.412 1.845 4.747 2.315 7.207.512 2.681-.534 5.014-2.964 6.504-2.475 1.518-6.25 1.467-8.115-.555-1.685-1.827-3.276-3.979-4.154-6.276-6.643-17.379-9.264-34.988-3.052-53.189 4.378-12.825 10.127-24.864 18.608-35.495 2.722-3.412 5.704-6.572 9.281-9.157 1.842-1.331 3.76-2.146 6.013-2.205z"></path><path fill="#030303" d="M2191.928 2448.482c-3.516.109-6.263-.654-8.97-1.796-15.866-6.696-29.986-15.907-41.484-28.85-1.905-2.145-3.512-4.591-5.016-7.045-.926-1.51-1.604-3.25-2.03-4.976-1.039-4.216.382-7.868 3.43-9.428 3.525-1.804 7.946-.884 10.367 3.112 8.37 13.817 21.161 22.53 34.537 30.592 3.036 1.83 6.154 3.353 10.117 3.234 6.171-.185 9.111 2.38 9.018 6.587-.101 4.616-4.095 8.24-9.449 8.567-.361.022-.723.003-.52.003z"></path><path fill="#050404" d="M2117.469 2326.05c2.305-13.661 6.948-23.765 14.417-32.55 2.432-2.861 5.365-4.913 9.145-5.458 4.754-.685 8.955 2.746 8.925 7.219-.016 2.306-.7 4.452-2.832 5.531-7.63 3.863-9.71 11.369-12.125 18.534-1.037 3.076-1.45 6.374-3.199 9.2-2.206 3.566-5.88 5.117-9.219 3.973-3.301-1.132-5.314-4.792-5.112-6.449z"></path><path fill="#020101" d="M1435.363 1328.914c27.66 2.165 50.04 13.21 63.703 38.57 3.428 6.362 6.243 13.055 9.331 19.6 1.507 3.195 1.306 6.347-.463 9.354a7.438 7.438 0 0 1-12.644.411c-.808-1.188-1.353-2.56-1.971-3.87-2.006-4.253-4.121-8.462-5.961-12.786-9.348-21.968-26.967-32.264-49.723-35.124-8.411-1.057-16.605.461-24.476 3.599-2.007.8-3.912 1.905-5.969 2.517-3.13.931-6.146-.221-7.654-2.586-1.739-2.727-1.302-6.474 1.04-8.985 2.543-2.726 5.836-4.357 9.189-5.648 8.171-3.144 16.657-4.918 25.598-5.052z"></path><path fill="#020202" d="M1468.874 1554.307c.035-8.862 2.286-14.606 5.672-19.819a116.62 116.62 0 0 1 9.801-13.025c8.094-9.295 16.415-18.394 24.715-27.508 2.814-3.09 5.77-3.597 8.706-1.835 3.313 1.987 4.938 5.877 3.096 9.349-1.846 3.478-4.364 6.647-6.875 9.715-7.351 8.982-14.898 17.805-22.255 26.782-2.522 3.078-4.758 6.37-5.908 10.311-1.674 5.735-.246 9.993 5.033 12.802 2.849 1.515 5.962 2.723 9.099 3.469 7.385 1.759 14.626 4.274 22.304 4.652.721.035 1.453.111 2.151.283 3.517.866 5.781 3.497 5.942 6.844.158 3.289-1.783 6.707-4.967 7.663-2.376.713-5.063 1.204-7.473.848-11.479-1.694-22.884-3.877-33.487-8.862-10.158-4.775-15.213-12.972-15.554-21.669zM1637.43 1431.468c17.351-.149 31.632 6.683 43.646 18.984 15.663 16.036 23.33 35.617 26.084 57.465a18.02 18.02 0 0 1 .133 3.258c-.23 4.013-2.85 7.006-6.547 7.574-3.492.536-7.403-1.613-8.501-5.365-1.321-4.514-2.142-9.185-3.003-13.821-2.592-13.963-8.912-25.996-18.431-36.465-10.662-11.727-23.716-17.681-39.685-16.818-1.81.098-3.632.4-5.424.271-2.936-.211-5.597-2.607-6.247-5.289-.681-2.812.634-5.667 3.162-7.544 2.504-1.858 5.363-2.114 8.274-2.232 2.175-.09 4.358-.018 6.539-.018z"></path></svg>